<?xml version="1.0" encoding="UTF-8"?>
<svg version="1.1" xmlns="http://www.w3.org/2000/svg" width="200" height="200">
<path d="M0 0 C5.31482342 3.45282746 9.39459449 6.25600976 11.296875 12.4921875 C11.58848979 15.94764378 11.55962829 19.39221984 11.53979492 22.8581543 C11.54169327 23.90332718 11.54359161 24.94850006 11.54554749 26.02534485 C11.54926245 29.49744081 11.53851463 32.96932863 11.52734375 36.44140625 C11.52614895 38.88955155 11.52569942 41.33769732 11.5259552 43.7858429 C11.52438748 48.94669427 11.51609533 54.10747659 11.50268555 59.26831055 C11.48602221 65.75054786 11.48196673 72.23270786 11.482481 78.71496391 C11.48211149 102.50342711 11.40971788 126.2903574 10.91015625 150.07421875 C10.89512747 150.90174841 10.88009869 151.72927807 10.86461449 152.58188438 C10.70157167 161.18902304 10.31541713 169.75809925 9.50854492 178.33081055 C9.44917157 179.07665563 9.38979822 179.82250071 9.32862568 180.59094715 C8.82121162 185.37464171 7.66262207 188.06316593 4.296875 191.4921875 C-3.4021537 197.53502979 -12.41519372 197.51766887 -21.703125 196.4921875 C-28.35863775 194.8562523 -32.95173981 190.0670308 -36.703125 184.4921875 C-37.33154297 182.74228516 -37.33154297 182.74228516 -37.97265625 180.95703125 C-40.07366167 176.75027774 -42.41235445 175.56467404 -46.578125 173.8671875 C-53.23965547 171.03428402 -58.74387855 167.34517928 -61.703125 160.4921875 C-61.68126561 158.97022743 -61.61505974 157.4485532 -61.515625 155.9296875 C-61.36536708 153.60607273 -61.36536708 153.60607273 -61.703125 151.4921875 C-64.37205336 149.18463735 -64.37205336 149.18463735 -67.703125 147.4921875 C-73.36341921 141.96352804 -75.72050227 135.2659853 -76.078125 127.3671875 C-75.28560254 119.17778873 -71.86371826 113.77174434 -66.703125 107.4921875 C-67.486875 106.6259375 -68.270625 105.7596875 -69.078125 104.8671875 C-73.31732587 99.70328842 -74.15614507 94.59020935 -74.02734375 88.03125 C-73.5203683 84.06096033 -72.06602105 80.71647375 -69.703125 77.4921875 C-68.218125 76.5021875 -68.218125 76.5021875 -66.703125 75.4921875 C-66.4904672 73.61633413 -66.4904672 73.61633413 -66.765625 71.4921875 C-66.94685245 65.88319795 -65.41380141 61.37668558 -62.703125 56.4921875 C-59.69418346 53.40609361 -56.76027859 51.88321159 -52.703125 50.4921875 C-53.033125 49.8321875 -53.363125 49.1721875 -53.703125 48.4921875 C-54.3708193 40.76444694 -54.48835302 33.88298545 -49.703125 27.4921875 C-46.04241324 23.41310869 -42.73479382 22.94633665 -37.49609375 22.5703125 C-36.90441406 22.54453125 -36.31273437 22.51875 -35.703125 22.4921875 C-35.81011719 21.85152344 -35.91710938 21.21085937 -36.02734375 20.55078125 C-36.84463781 14.65396067 -36.93608856 10.74575328 -33.703125 5.4921875 C-24.7140928 -4.56414404 -11.73006911 -6.61217272 0 0 Z M-27.703125 7.0546875 C-30.94931806 11.01098529 -31.20004898 13.3573064 -30.703125 18.4921875 C-28.90069193 22.22927845 -26.49283496 25.47684612 -23.953125 28.7421875 C-22.5901397 30.65036692 -22.11259192 32.19917277 -21.703125 34.4921875 C-25.1722518 33.47683331 -28.10893971 32.30143015 -31.140625 30.3671875 C-34.77656584 28.24020224 -37.46546342 27.78591057 -41.703125 28.4921875 C-45.34891292 31.32780032 -47.53044188 34.01467013 -48.703125 38.4921875 C-49.15389545 44.11315836 -48.00254259 47.86670692 -45.265625 52.6796875 C-44.90799072 53.32607178 -44.55035645 53.97245605 -44.18188477 54.63842773 C-38.92709705 63.8994647 -32.51718494 74.58515753 -22.703125 79.4921875 C-17.85894802 79.65366007 -13.47438162 79.44643882 -8.703125 78.4921875 C-9.198125 80.4721875 -9.198125 80.4721875 -9.703125 82.4921875 C-14.24013994 83.94403228 -17.88373976 84.72727946 -22.703125 84.4921875 C-25.88776519 90.42388374 -28.35655525 95.8817542 -29.703125 102.4921875 C-31.023125 102.1621875 -32.343125 101.8321875 -33.703125 101.4921875 C-33.23189752 94.5808511 -30.49676494 88.77014589 -27.703125 82.4921875 C-28.16460937 82.14929688 -28.62609375 81.80640625 -29.1015625 81.453125 C-36.38395855 75.60993765 -42.73931814 67.55040965 -46.85546875 59.13671875 C-47.61674014 57.26880134 -47.61674014 57.26880134 -49.890625 56.3671875 C-53.78428054 56.54023886 -55.41828074 58.31532699 -58.25 60.8515625 C-61.03442423 63.99526727 -60.99157723 67.45156732 -60.91015625 71.5078125 C-60.41291725 76.27380137 -57.58073027 78.67061211 -54.078125 81.5546875 C-53.46710937 82.02003906 -52.85609375 82.48539062 -52.2265625 82.96484375 C-50.44067962 84.75530582 -50.09529007 86.02790701 -49.703125 88.4921875 C-55.80732401 87.2464326 -59.25144103 84.79503097 -63.703125 80.4921875 C-66.59740354 83.75992134 -68.60216474 86.04993627 -68.703125 90.4921875 C-67.49928179 96.33029438 -65.72744666 101.00592349 -60.703125 104.4921875 C-56.75141002 105.76643502 -52.77546355 106.69330769 -48.703125 107.4921875 C-48.703125 108.8121875 -48.703125 110.1321875 -48.703125 111.4921875 C-49.65574219 111.50636719 -50.60835937 111.52054687 -51.58984375 111.53515625 C-59.21952737 111.64745827 -59.21952737 111.64745827 -65.953125 114.7421875 C-69.85645677 120.87599457 -70.53443266 126.33092272 -69.703125 133.4921875 C-68.31863069 137.65931077 -66.32236774 141.86001096 -62.703125 144.4921875 C-58.11058186 144.41615202 -55.72092491 142.1403916 -52.453125 139.1171875 C-51.58171875 138.32570312 -50.7103125 137.53421875 -49.8125 136.71875 C-47.5023016 134.59452641 -47.5023016 134.59452641 -46.703125 131.4921875 C-45.053125 131.4921875 -43.403125 131.4921875 -41.703125 131.4921875 C-42.97919731 136.22600413 -44.64931668 138.89281362 -48.078125 142.3671875 C-52.00234402 146.58936822 -54.79100359 150.02898348 -56.703125 155.4921875 C-56.22087048 159.59135088 -55.07578888 161.11020702 -52.203125 164.0546875 C-47.30589116 167.79109554 -41.5285428 170.55038157 -35.703125 172.4921875 C-34.37890625 175.00390625 -34.37890625 175.00390625 -33.015625 178.1796875 C-30.2525085 183.92478122 -27.51359819 187.69290003 -21.703125 190.4921875 C-19.26097839 191.17081803 -17.2576261 191.38574995 -14.703125 191.4921875 C-13.93394526 186.58866666 -13.56595609 181.7692554 -13.453125 176.8046875 C-13.41445312 175.19013672 -13.41445312 175.19013672 -13.375 173.54296875 C-13.99598744 167.7692641 -17.33686735 164.67276904 -21.49609375 161.01953125 C-22.703125 159.4921875 -22.703125 159.4921875 -22.703125 155.4921875 C-18.4166954 155.96845746 -16.48208381 158.36585883 -13.703125 161.4921875 C-12.99671875 162.28496094 -12.2903125 163.07773438 -11.5625 163.89453125 C-8.43759564 168.65898247 -9.28567195 174.39920137 -9.453125 179.8671875 C-9.47117188 180.98480469 -9.48921875 182.10242188 -9.5078125 183.25390625 C-9.55476945 186.0008878 -9.62043032 188.74608797 -9.703125 191.4921875 C-8.42870558 191.04552664 -7.15710437 190.59082032 -5.88671875 190.1328125 C-5.17829834 189.88047852 -4.46987793 189.62814453 -3.73999023 189.36816406 C-0.54238268 187.99299735 1.22212183 186.25852507 3.296875 183.4921875 C4.24523314 178.54438075 4.49081578 173.61454408 4.61328125 168.58984375 C4.6444529 167.50599648 4.6444529 167.50599648 4.67625427 166.4002533 C4.74102926 164.1184838 4.8002953 161.83661083 4.859375 159.5546875 C4.90262897 157.99673459 4.94624531 156.4387917 4.99023438 154.88085938 C5.09663539 151.08473828 5.19809999 147.28851436 5.296875 143.4921875 C4.27207031 143.50523926 3.24726562 143.51829102 2.19140625 143.53173828 C0.83073148 143.54229524 -0.52994579 143.55253223 -1.890625 143.5625 C-2.90092773 143.5766394 -2.90092773 143.5766394 -3.93164062 143.59106445 C-11.90739852 143.63483386 -18.16555139 141.93098276 -24.0625 136.43359375 C-28.41776182 131.27986726 -32.21516252 125.39844969 -31.703125 118.4921875 C-30.713125 118.4921875 -29.723125 118.4921875 -28.703125 118.4921875 C-28.27902344 119.36101562 -27.85492188 120.22984375 -27.41796875 121.125 C-21.90933492 132.13542825 -21.90933492 132.13542825 -11.703125 138.4921875 C-10.36786783 138.57192226 -9.02900417 138.59990088 -7.69140625 138.58984375 C-7.00860596 138.58734619 -6.32580566 138.58484863 -5.62231445 138.58227539 C-4.76210693 138.57317139 -3.90189941 138.56406738 -3.015625 138.5546875 C1.0990625 138.52375 1.0990625 138.52375 5.296875 138.4921875 C5.296875 129.2521875 5.296875 120.0121875 5.296875 110.4921875 C1.006875 109.8321875 -3.283125 109.1721875 -7.703125 108.4921875 C-9.353125 107.8321875 -11.003125 107.1721875 -12.703125 106.4921875 C-13.515625 104.3671875 -13.515625 104.3671875 -13.703125 102.4921875 C-12.83429688 102.70875 -11.96546875 102.9253125 -11.0703125 103.1484375 C-9.91789062 103.426875 -8.76546875 103.7053125 -7.578125 103.9921875 C-6.44117188 104.270625 -5.30421875 104.5490625 -4.1328125 104.8359375 C-0.87888278 105.45855731 1.99795336 105.54076058 5.296875 105.4921875 C5.37119918 100.45681973 5.42555901 95.42177342 5.46166992 90.38598633 C5.4767284 88.67401566 5.49717955 86.96208339 5.52319336 85.25024414 C5.5597069 82.78522245 5.57663062 80.32071215 5.58984375 77.85546875 C5.60532761 77.09381912 5.62081146 76.33216949 5.63676453 75.54743958 C5.63819533 70.99872919 5.11408713 68.10568849 2.296875 64.4921875 C-3.5829558 60.28927595 -9.59200331 58.83627403 -16.703125 58.4921875 C-16.703125 56.8421875 -16.703125 55.1921875 -16.703125 53.4921875 C-14.30457402 53.91759088 -11.91002759 54.3569899 -9.515625 54.8046875 C-8.50532227 54.98161133 -8.50532227 54.98161133 -7.47460938 55.16210938 C-3.29368941 55.95750391 -0.25051874 57.17697805 3.296875 59.4921875 C3.956875 59.4921875 4.616875 59.4921875 5.296875 59.4921875 C5.42375337 52.89042707 5.51125877 46.2889815 5.5715332 39.6862793 C5.59666223 37.44071706 5.63077115 35.1952365 5.67407227 32.94995117 C5.73479276 29.72033532 5.76310131 26.49180166 5.78515625 23.26171875 C5.81096268 22.25945755 5.8367691 21.25719635 5.86335754 20.2245636 C5.88483643 14.35818244 5.88483643 14.35818244 2.87280273 9.41577148 C2.02274658 8.78098877 1.17269043 8.14620605 0.296875 7.4921875 C-0.26515625 6.98171875 -0.8271875 6.47125 -1.40625 5.9453125 C-9.71577389 -0.51765053 -19.78220914 0.2889052 -27.703125 7.0546875 Z " fill="#000000" transform="translate(83.703125,3.5078125)"/>
<path d="M0 0 C1.9921875 2.46875 1.9921875 2.46875 3.875 5.5 C6.83294942 10.0957968 6.83294942 10.0957968 11.8125 12 C12.864375 12 13.91625 12 15 12 C16.9375 13.1875 16.9375 13.1875 18 15 C18.38653327 18.09226613 18.5900433 20.08215487 16.875 22.75 C15 24 15 24 12.1796875 24.8125 C8.65764065 26.12785902 6.875025 27.58876776 4.25 30.25 C3.49203125 30.99765625 2.7340625 31.7453125 1.953125 32.515625 C-0.20178863 35.25667513 -0.97394177 37.69795805 -2 41 C-4.79870027 42.39935013 -6.90498792 42.25265405 -10 42 C-11.875 40.875 -11.875 40.875 -13 39 C-13.38273002 35.93815985 -13.56479824 33.93025592 -11.9375 31.25 C-10 30 -10 30 -6.75 29.25 C-1.89171373 27.63057124 1.10704215 25.22816917 4 21 C4.47469947 16.53782497 2.52012521 14.17908372 -0.0625 10.75 C-0.88427734 9.75226562 -0.88427734 9.75226562 -1.72265625 8.734375 C-3 7 -3 7 -3 5 C-4.12019531 5.433125 -5.24039063 5.86625 -6.39453125 6.3125 C-7.86708796 6.87526053 -9.33974972 7.43774624 -10.8125 8 C-11.55048828 8.28617188 -12.28847656 8.57234375 -13.04882812 8.8671875 C-13.76103516 9.13789063 -14.47324219 9.40859375 -15.20703125 9.6875 C-15.8616333 9.93886719 -16.51623535 10.19023437 -17.19067383 10.44921875 C-19 11 -19 11 -22 11 C-22.33 12.65 -22.66 14.3 -23 16 C-23.99 16.33 -24.98 16.66 -26 17 C-26 30.2 -26 43.4 -26 57 C-14.06657475 57.50043567 -14.06657475 57.50043567 -11 54 C-7.5625 53.625 -7.5625 53.625 -4 54 C-2 55.625 -2 55.625 -1 58 C-1.125 61.125 -1.125 61.125 -2 64 C-5 66 -5 66 -8.625 65.6875 C-12 65 -12 65 -13 64 C-17.32490853 63.5347708 -21.65935537 63.29499527 -26 63 C-26 71.58 -26 80.16 -26 89 C-23.07125 88.87625 -20.1425 88.7525 -17.125 88.625 C-16.20348145 88.59100098 -15.28196289 88.55700195 -14.33251953 88.52197266 C-13.24366455 88.46855713 -13.24366455 88.46855713 -12.1328125 88.4140625 C-11.38918457 88.3826416 -10.64555664 88.3512207 -9.87939453 88.31884766 C-7.75989026 88.14580449 -7.75989026 88.14580449 -6 86 C0.46153846 86.46153846 0.46153846 86.46153846 3 89 C3.34490322 93.05261287 3.30163882 94.54754176 1 98 C-1.875 98.875 -1.875 98.875 -5 99 C-5.61713867 98.51813232 -6.23427734 98.03626465 -6.87011719 97.53979492 C-9.48188961 95.65161878 -11.00865463 95.58114376 -14.203125 95.48828125 C-15.67265625 95.43510742 -15.67265625 95.43510742 -17.171875 95.38085938 C-18.18765625 95.35830078 -19.2034375 95.33574219 -20.25 95.3125 C-21.28125 95.27833984 -22.3125 95.24417969 -23.375 95.20898438 C-25.91655812 95.12661907 -28.45777626 95.05743166 -31 95 C-31.00808685 94.02725128 -31.01617371 93.05450256 -31.02450562 92.05227661 C-31.10188279 82.89933996 -31.18960041 73.7465535 -31.28752708 64.59381294 C-31.33754143 59.88793021 -31.38387083 55.18207049 -31.421875 50.47607422 C-31.45866313 45.93724907 -31.50500504 41.39861412 -31.55806351 36.85995102 C-31.57664199 35.12558187 -31.59173709 33.39117191 -31.60334396 31.6567421 C-31.62014765 29.23336423 -31.64916748 26.81042527 -31.68115234 24.38720703 C-31.68331253 23.66503998 -31.68547272 22.94287292 -31.68769836 22.19882202 C-31.64495889 18.15069195 -31.64495889 18.15069195 -34 15 C-34.56604187 8.77353941 -34.56604187 8.77353941 -32.73925781 6.27709961 C-30.54569635 4.6664146 -29.53783381 4.77212805 -26.859375 5.00390625 C-21.7580602 5.17842491 -17.92588701 3.84421342 -13.25 1.9375 C-3.95127806 -1.82313356 -3.95127806 -1.82313356 0 0 Z " fill="#000000" transform="translate(133,1)"/>
<path d="M0 0 C1.875 1.125 1.875 1.125 3 3 C3.3125 6.0625 3.3125 6.0625 3 9 C2.34 9.66 1.68 10.32 1 11 C0.62760773 13.81402683 0.62760773 13.81402683 0.5859375 17.1015625 C0.52792969 18.91914062 0.52792969 18.91914062 0.46875 20.7734375 C0.4378125 22.04445313 0.406875 23.31546875 0.375 24.625 C0.31699219 26.543125 0.31699219 26.543125 0.2578125 28.5 C0.16328951 31.66652017 0.07773643 34.8330304 0 38 C1.62580966 37.88601335 3.25067157 37.75844341 4.875 37.625 C5.77992187 37.55539063 6.68484375 37.48578125 7.6171875 37.4140625 C10.17941903 37.20431868 10.17941903 37.20431868 12 35 C15.4375 34.625 15.4375 34.625 19 35 C21 36.625 21 36.625 22 39 C21.77962372 42.67293796 21.63033454 44.36966546 19 47 C15.5 47.25 15.5 47.25 12 47 C11.34 46.34 10.68 45.68 10 45 C7.56747339 44.53837573 7.56747339 44.53837573 4.875 44.375 C3.96492188 44.30023438 3.05484375 44.22546875 2.1171875 44.1484375 C1.41851562 44.09945312 0.71984375 44.05046875 0 44 C-2.24819984 62.31333646 -2.24819984 62.31333646 2.90625 79.296875 C7.02782289 84.14915613 11.18252159 88.30358039 17.4609375 89.85546875 C18.29882812 89.90316406 19.13671875 89.95085937 20 90 C19.89037184 86.8742604 19.75968759 83.74975219 19.625 80.625 C19.5940625 79.73554688 19.563125 78.84609375 19.53125 77.9296875 C19.49257812 77.07890625 19.45390625 76.228125 19.4140625 75.3515625 C19.36693115 74.17327881 19.36693115 74.17327881 19.31884766 72.97119141 C19.1600535 70.76997061 19.1600535 70.76997061 17 69 C16.625 65.5625 16.625 65.5625 17 62 C18.625 60 18.625 60 21 59 C24.125 59.125 24.125 59.125 27 60 C29 63 29 63 28.6875 66.625 C28 70 28 70 27 71 C26.84379445 72.41327947 26.74943827 73.8335459 26.68359375 75.25390625 C26.62075195 76.53491211 26.62075195 76.53491211 26.55664062 77.84179688 C26.51732422 78.73962891 26.47800781 79.63746094 26.4375 80.5625 C26.37272461 81.91504883 26.37272461 81.91504883 26.30664062 83.29492188 C26.20021858 85.52978485 26.09820012 87.76476308 26 90 C35.7188789 90.73681678 35.7188789 90.73681678 44 86.47265625 C48.06285081 81.20527435 50.37364897 77.75442371 50 71 C51.125 68.625 51.125 68.625 53 67 C57.08165827 66.48979272 58.52957297 66.68638198 62 69 C63.00481939 72.30154941 63.44217151 74.11565698 61.875 77.25 C60 79 60 79 57.62109375 79.6328125 C54.35859832 81.33456124 53.79141856 83.27846325 52.27612305 86.51489258 C50.1666079 90.60382271 47.96617198 93.57245644 44 96 C33.6444164 98.81253622 19.07523428 99.4635928 9.22314453 94.640625 C5.0984681 91.6748829 1.98058384 88.10929666 -0.76855469 83.8527832 C-2.02486693 81.85401963 -2.02486693 81.85401963 -4.04858398 79.79833984 C-6.44277705 76.36505561 -6.4858595 74.52612964 -6.45410156 70.3737793 C-6.45468567 69.72931351 -6.45526978 69.08484772 -6.45587158 68.42085266 C-6.45309954 66.30474728 -6.42205361 64.19007595 -6.390625 62.07421875 C-6.38315937 60.60163645 -6.37746796 59.12904417 -6.37347412 57.65644836 C-6.35824282 53.79121194 -6.31898363 49.92658215 -6.2746582 46.06158447 C-6.23365082 42.11340541 -6.2154515 38.16512778 -6.1953125 34.21679688 C-6.15248605 26.47758881 -6.08426624 18.73887959 -6 11 C-6.66 11 -7.32 11 -8 11 C-9.39935013 8.20129973 -9.25265405 6.09501208 -9 3 C-6.79086995 -0.68188342 -4.01844539 -0.50230567 0 0 Z " fill="#000000" transform="translate(108,104)"/>
<path d="M0 0 C2.54168437 2.54168437 2.31299113 4.35529161 2.4609375 7.83203125 C3.33853441 11.3614971 4.1246961 12.65897242 7 15 C11.22950348 15.48534631 15.43964664 15.20668075 19.6875 15.0625 C33.52584508 15.02934765 41.02313897 18.82140568 51 28 C52.98561978 29.68463587 54.99323988 31.34050465 57 33 C55.68890091 36.2922264 54.37588318 39.58368421 53.0625 42.875 C52.68931641 43.81214844 52.31613281 44.74929687 51.93164062 45.71484375 C51.57392578 46.61074219 51.21621094 47.50664062 50.84765625 48.4296875 C50.3527771 49.67081299 50.3527771 49.67081299 49.84790039 50.93701172 C49 53 49 53 48 55 C46.87972412 55.029729 46.87972412 55.029729 45.73681641 55.06005859 C42.36584395 55.15508211 38.99551071 55.26485259 35.625 55.375 C34.449375 55.4059375 33.27375 55.436875 32.0625 55.46875 C30.94101563 55.50742188 29.81953125 55.54609375 28.6640625 55.5859375 C27.62717285 55.6173584 26.5902832 55.6487793 25.52197266 55.68115234 C22.83190165 55.75954472 22.83190165 55.75954472 21 58 C14.94759825 58.55021834 14.94759825 58.55021834 12.0625 56.875 C10.49577755 54.11019567 10.61023565 52.11811483 11 49 C12.125 47.125 12.125 47.125 14 46 C18.07794425 45.57521414 19.53076119 45.68717413 23 48 C23 48.66 23 49.32 23 50 C29.93 50 36.86 50 44 50 C44.99 47.03 45.98 44.06 47 41 C47.66666667 39 48.33333333 37 49 35 C37.41603085 24.86003038 37.41603085 24.86003038 23 21 C23 23.64 23 26.28 23 29 C23.99 29.33 24.98 29.66 26 30 C27.32296047 36.37426409 27.32296047 36.37426409 26 38.9375 C22.8665055 40.60216895 20.47383326 40.43422916 17 40 C15 38.375 15 38.375 14 36 C14.3125 32.75 14.3125 32.75 15 30 C15.99 29.67 16.98 29.34 18 29 C18 26.36 18 23.72 18 21 C16.98679688 21.0928125 15.97359375 21.185625 14.9296875 21.28125 C4.20060759 21.9684459 4.20060759 21.9684459 0.87890625 19.2890625 C-0.5625 17.125 -0.5625 17.125 -1.796875 14.90625 C-3.58110363 12.07929035 -5.85883402 11.73050372 -9 11 C-10.39935013 8.20129973 -10.25265405 6.09501208 -10 3 C-7.71933282 -1.02470679 -4.21240995 -0.38294636 0 0 Z " fill="#000000" transform="translate(133,109)"/>
<path d="M0 0 C1.875 1.25 1.875 1.25 3 3 C3 4.32 3 5.64 3 7 C3.7209082 7.11859375 4.44181641 7.2371875 5.18457031 7.359375 C8.06598722 8.01501478 10.38775895 8.97152047 13.046875 10.25 C13.97371094 10.6934375 14.90054688 11.136875 15.85546875 11.59375 C16.81066406 12.0578125 17.76585937 12.521875 18.75 13 C19.72066406 13.4640625 20.69132812 13.928125 21.69140625 14.40625 C28.85074124 17.85074124 28.85074124 17.85074124 30 19 C30.31605662 23.75341762 30.35689004 28.50934779 30.4050293 33.2722168 C30.42655904 34.87367382 30.46060301 36.47501475 30.50756836 38.07592773 C30.57480086 40.38839086 30.60206613 42.69841421 30.62109375 45.01171875 C30.64892441 45.72132248 30.67675507 46.43092621 30.70542908 47.16203308 C30.69343561 50.08863476 30.50539772 52.35661833 28.66604614 54.69815063 C27.03930664 56.26489258 27.03930664 56.26489258 25.41273499 57.60212708 C23.0651605 59.92500493 22.72305048 62.86678125 22 66 C20 68 20 68 16.5625 68.3125 C13 68 13 68 11.0625 66.875 C9.49577755 64.11019567 9.61023565 62.11811483 10 59 C12.22371617 55.33740866 16.09594129 55.11544535 20 54 C21.8232718 53.01326332 21.8232718 53.01326332 23 51 C23.37674518 48.20748417 23.60191941 45.61220799 23.6875 42.8125 C23.72166016 42.06291016 23.75582031 41.31332031 23.79101562 40.54101562 C23.87334294 38.69453162 23.93835281 36.84729006 24 35 C13.32472283 34.47591638 13.32472283 34.47591638 4.0625 38.625 C1.8304085 42.27751337 1.39743546 44.78718417 1 49 C-0.1875 50.9375 -0.1875 50.9375 -2 52 C-6.07794425 52.42478586 -7.53076119 52.31282587 -11 50 C-11.36328125 48.125 -11.36328125 48.125 -11.3125 46 C-11.30669922 44.948125 -11.30669922 44.948125 -11.30078125 43.875 C-11 42 -11 42 -9 40 C-8.04609375 39.72414062 -7.0921875 39.44828125 -6.109375 39.1640625 C-2.47478668 37.80337491 -1.52831256 36.44195922 0.75 33.375 C3.88048098 29.99581069 6.06677887 28.7323483 10.58203125 28.41015625 C15.07711955 28.34011444 19.52336645 28.60883785 24 29 C24 26.69 24 24.38 24 22 C23.16339844 21.74476562 22.32679688 21.48953125 21.46484375 21.2265625 C17.00025535 19.64608814 12.85907178 17.55972075 8.65429688 15.390625 C4.24207067 13.23212585 0.9997443 12.75401012 -4 13 C-6.76142665 11.98263229 -7.68085371 11.63829259 -9 9 C-9.44720497 3.74534161 -9.44720497 3.74534161 -7.875 1.125 C-5.11909116 -0.52854531 -3.14924548 -0.39365568 0 0 Z " fill="#000000" transform="translate(162,59)"/>
<path d="M0 0 C1.75 1.0625 1.75 1.0625 3 3 C3.09410156 4.06476562 3.18820313 5.12953125 3.28515625 6.2265625 C4.10969059 10.57902247 5.8498327 13.06885986 8.6875 16.3125 C9.10966797 16.83650391 9.53183594 17.36050781 9.96679688 17.90039062 C12.99540281 21.46802447 15.54800115 22.77336535 20 24 C20.66 24.66 21.32 25.32 22 26 C21.8125 29.5 21.8125 29.5 21 33 C17.1496895 35.56687367 15.41430237 34.83288724 11 34 C10.71125 33.0925 10.4225 32.185 10.125 31.25 C8.46303237 26.44876018 6.3000633 22.84157333 3.1875 18.8125 C2.52105469 17.93207031 1.85460937 17.05164063 1.16796875 16.14453125 C-0.8467264 13.88093493 -0.8467264 13.88093493 -3.46875 12.98046875 C-7.86375818 13.01438085 -9.98782045 15.84086479 -13.046875 18.72265625 C-15.68243387 21.79571789 -16.27808046 24.06954919 -17 28 C-17.66 28.33 -18.32 28.66 -19 29 C-19.08086376 31.93804996 -19.1404283 34.87388075 -19.1875 37.8125 C-19.21263672 38.64587891 -19.23777344 39.47925781 -19.26367188 40.33789062 C-19.27333984 41.14033203 -19.28300781 41.94277344 -19.29296875 42.76953125 C-19.3086792 43.50792236 -19.32438965 44.24631348 -19.34057617 45.00708008 C-18.90751649 47.54117768 -17.83142187 48.26839285 -16 50 C-15.60634432 53.14924548 -15.47145469 55.11909116 -17.125 57.875 C-19.88090884 59.52854531 -21.85075452 59.39365568 -25 59 C-26.875 57.875 -26.875 57.875 -28 56 C-28.3125 52.9375 -28.3125 52.9375 -28 50 C-27.34 49.34 -26.68 48.68 -26 48 C-25.63047951 45.87139338 -25.63047951 45.87139338 -25.5859375 43.4296875 C-25.54726562 42.53378906 -25.50859375 41.63789062 -25.46875 40.71484375 C-25.4378125 39.77769531 -25.406875 38.84054688 -25.375 37.875 C-25.33632812 36.93011719 -25.29765625 35.98523437 -25.2578125 35.01171875 C-25.16338654 32.67467625 -25.07781606 30.33764499 -25 28 C-25.66 28 -26.32 28 -27 28 C-28.39935013 25.20129973 -28.25265405 23.09501208 -28 20 C-26.9375 18.25 -26.9375 18.25 -25 17 C-23.948125 16.7525 -22.89625 16.505 -21.8125 16.25 C-16.85559267 14.98440664 -13.33135246 11.77919937 -10 8 C-8.66436389 4.83298577 -8.66436389 4.83298577 -8 2 C-4.76746204 -0.15502531 -3.74849077 -0.46856135 0 0 Z " fill="#000000" transform="translate(164,25)"/>
</svg>
